<svg width="40" height="40" viewBox="0 0 40 40" fill="none" xmlns="http://www.w3.org/2000/svg">
<path d="M17.7641 1.6001C17.5744 1.6002 17.391 1.66765 17.2465 1.79042C17.102 1.91319 17.0058 2.0833 16.975 2.27041L16.1969 7.03447C15.2612 7.30666 14.369 7.67392 13.5281 8.13135L9.59688 5.32354C9.44296 5.21363 9.25509 5.1618 9.06659 5.17724C8.87809 5.19269 8.70116 5.27441 8.56719 5.40791L5.45469 8.51729C5.32168 8.65039 5.23984 8.82611 5.22355 9.01357C5.20726 9.20103 5.25757 9.38824 5.36563 9.54229L8.13125 13.4985C7.66676 14.3443 7.29137 15.2416 7.0125 16.186L2.26875 16.9751C2.08221 17.0065 1.91283 17.103 1.79069 17.2475C1.66855 17.3919 1.60154 17.575 1.60156 17.7642V22.1642C1.60122 22.3522 1.66712 22.5344 1.7877 22.6786C1.90828 22.8229 2.07583 22.9202 2.26094 22.9532L7.00781 23.7938C7.28517 24.7367 7.65818 25.6346 8.12344 26.4813L5.32344 30.3985C5.21353 30.5525 5.1617 30.7403 5.17715 30.9288C5.19259 31.1173 5.27432 31.2943 5.40781 31.4282L8.51875 34.5407C8.65156 34.6736 8.82688 34.7555 9.014 34.772C9.20112 34.7886 9.3881 34.7388 9.54219 34.6313L13.5063 31.8563C14.3496 32.3165 15.244 32.6864 16.1828 32.961L16.975 37.7313C17.0061 37.9182 17.1025 38.0879 17.2469 38.2104C17.3914 38.3328 17.5747 38.4001 17.7641 38.4001H22.1641C22.3523 38.4004 22.5347 38.3343 22.679 38.2134C22.8233 38.0925 22.9204 37.9246 22.9531 37.7392L23.8016 32.9501C24.7365 32.6713 25.6267 32.2959 26.4656 31.8329L30.4563 34.6329C30.6103 34.741 30.7975 34.7913 30.985 34.775C31.1724 34.7587 31.3481 34.6769 31.4813 34.5438L34.5922 31.4298C34.7263 31.2954 34.8082 31.1178 34.8234 30.9286C34.8385 30.7394 34.7859 30.551 34.675 30.397L31.8297 26.447C32.2846 25.6121 32.6511 24.7272 32.9234 23.7985L37.7375 22.9548C37.9229 22.922 38.0908 22.825 38.2117 22.6806C38.3326 22.5363 38.3987 22.354 38.3984 22.1657V17.7657C38.3983 17.5761 38.3309 17.3927 38.2081 17.2482C38.0854 17.1036 37.9152 17.0074 37.7281 16.9767L32.9219 16.1907C32.6477 15.2632 32.2802 14.3799 31.825 13.5454L34.6313 9.54697C34.7393 9.39293 34.7896 9.20572 34.7733 9.01826C34.757 8.8308 34.6752 8.65508 34.5422 8.52197L31.4297 5.41104C31.2953 5.27697 31.1177 5.19503 30.9285 5.17986C30.7393 5.16469 30.5509 5.21728 30.3969 5.32822L26.4578 8.16104C25.6186 7.69995 24.7278 7.32649 23.7906 7.0501L22.9531 2.2626C22.9207 2.07691 22.8238 1.90864 22.6794 1.78743C22.5351 1.66623 22.3526 1.59989 22.1641 1.6001H17.7641ZM18.4453 3.2001H21.4922L22.2891 7.74854C22.3156 7.90109 22.3858 8.04267 22.4912 8.1561C22.5966 8.26954 22.7326 8.34996 22.8828 8.3876C24.0528 8.67916 25.1517 9.14134 26.1547 9.74854C26.2888 9.82979 26.4438 9.86985 26.6005 9.86373C26.7572 9.85762 26.9086 9.80561 27.0359 9.71416L30.7797 7.02354L32.9344 9.17822L30.2688 12.9767C30.1797 13.1034 30.1294 13.2532 30.1238 13.408C30.1183 13.5627 30.1578 13.7158 30.2375 13.8485C30.8387 14.8493 31.2947 15.9412 31.5859 17.1048C31.6239 17.2563 31.7053 17.3935 31.8203 17.4992C31.9352 17.605 32.0786 17.6749 32.2328 17.7001L36.7984 18.447V21.4938L32.2234 22.297C32.0708 22.324 31.9292 22.3948 31.8161 22.5008C31.7029 22.6067 31.6229 22.7433 31.5859 22.8938C31.298 24.056 30.8418 25.1478 30.2406 26.1485C30.1599 26.2826 30.1203 26.4374 30.1267 26.5938C30.1331 26.7501 30.1852 26.9012 30.2766 27.0282L32.9797 30.7798L30.825 32.936L27.0328 30.2751C26.9055 30.1859 26.7549 30.1357 26.5995 30.1307C26.4441 30.1257 26.2906 30.1661 26.1578 30.247C25.1598 30.8542 24.0598 31.3185 22.8938 31.6142C22.7443 31.6518 22.6089 31.7319 22.5038 31.8447C22.3987 31.9575 22.3285 32.0983 22.3016 32.2501L21.4938 36.8001H18.4422L17.6891 32.2704C17.6634 32.1163 17.5933 31.9731 17.4872 31.8584C17.3811 31.7438 17.2438 31.6627 17.0922 31.6251C15.9215 31.3365 14.8177 30.8751 13.8078 30.2688C13.6752 30.1894 13.5225 30.1501 13.368 30.1557C13.2136 30.1612 13.0641 30.2114 12.9375 30.3001L9.175 32.936L7.01875 30.7767L9.67813 27.0595C9.76901 26.9321 9.82056 26.7809 9.82639 26.6245C9.83222 26.4682 9.79208 26.3136 9.71094 26.1798C9.09812 25.1672 8.63466 24.0635 8.34219 22.8876C8.30477 22.7378 8.22482 22.6021 8.11198 22.4967C7.99914 22.3914 7.85823 22.3209 7.70625 22.2938L3.20156 21.4938V18.4423L7.70313 17.6938C7.85701 17.6683 8.00008 17.5984 8.11473 17.4926C8.22938 17.3868 8.31062 17.2499 8.34844 17.0985C8.64342 15.9186 9.10666 14.8151 9.71719 13.8048C9.7977 13.6721 9.8379 13.519 9.83291 13.3639C9.82792 13.2088 9.77794 13.0585 9.68906 12.9313L7.06094 9.1751L9.21875 7.01885L12.9484 9.68447C13.0753 9.77495 13.2259 9.8264 13.3816 9.83251C13.5373 9.83861 13.6914 9.79911 13.825 9.71885C14.8295 9.11553 15.9359 8.65776 17.1078 8.37041C17.2602 8.33291 17.3981 8.25144 17.5045 8.13615C17.6109 8.02086 17.6811 7.87683 17.7063 7.72197L18.4453 3.2001ZM20 13.6001C16.4749 13.6001 13.6 16.475 13.6 20.0001C13.6 23.5252 16.4749 26.4001 20 26.4001C23.5251 26.4001 26.4 23.5252 26.4 20.0001C26.4 16.475 23.5251 13.6001 20 13.6001ZM20 15.2001C22.6604 15.2001 24.8 17.3397 24.8 20.0001C24.8 22.6605 22.6604 24.8001 20 24.8001C17.3396 24.8001 15.2 22.6605 15.2 20.0001C15.2 17.3397 17.3396 15.2001 20 15.2001Z" fill="white"/>
</svg>
